<svg id="Layer_1" data-name="Layer 1" xmlns="http://www.w3.org/2000/svg" viewBox="0 0 1168 1156"><defs><style>.cls-1{font-size:33px;}.cls-1,.cls-2{fill:#4879c1;}.cls-1,.cls-11,.cls-19,.cls-2,.cls-29,.cls-38{font-family:SamsungSans-Bold, Samsung Sans;font-weight:700;}.cls-11,.cls-2{font-size:30px;}.cls-2{letter-spacing:-0.1em;}.cls-3{letter-spacing:0em;}.cls-4,.cls-6,.cls-7{fill:none;stroke:#6ca4ff;}.cls-4,.cls-6{stroke-miterlimit:10;}.cls-4,.cls-7{stroke-width:4.71px;}.cls-5{fill:#6ca4ff;}.cls-6{stroke-width:4.71px;}.cls-7{stroke-linecap:round;stroke-linejoin:round;}.cls-8{fill:#00abe0;}.cls-11,.cls-19,.cls-29,.cls-38,.cls-9{fill:#fff;}.cls-10{fill:#dd006f;}.cls-12{letter-spacing:-0.01em;}.cls-13{letter-spacing:-0.01em;}.cls-14{letter-spacing:-0.02em;}.cls-15{letter-spacing:0em;}.cls-16{fill:#00af8d;}.cls-17{letter-spacing:-0.02em;}.cls-18{fill:#9211f7;}.cls-19{font-size:29px;}.cls-20{letter-spacing:-0.02em;}.cls-21{letter-spacing:-0.01em;}.cls-22{letter-spacing:-0.02em;}.cls-23{letter-spacing:0.01em;}.cls-24{letter-spacing:-0.01em;}.cls-25{letter-spacing:-0.01em;}.cls-26{letter-spacing:-0.02em;}.cls-27{letter-spacing:0em;}.cls-28{fill:#00700b;}.cls-29{font-size:26px;}.cls-30{letter-spacing:-0.08em;}.cls-31{letter-spacing:-0.01em;}.cls-32{letter-spacing:-0.01em;}.cls-33{letter-spacing:-0.02em;}.cls-34{fill:#e59328;}.cls-35{letter-spacing:-0.06em;}.cls-36{letter-spacing:-0.01em;}.cls-37{letter-spacing:0.02em;}.cls-38{font-size:32px;}.cls-39{letter-spacing:-0.01em;}</style></defs><title>nnid-flow</title><text class="cls-1" transform="translate(1077 551.17)">No</text><text class="cls-2" transform="translate(768 1000.64)">Y<tspan class="cls-3" x="16.62" y="0">es</tspan></text><line class="cls-4" x1="792.54" y1="1006" x2="792.54" y2="1029.37"/><polygon class="cls-5" points="792.54 1046 782.97 1022.57 792.54 1028.13 802.11 1022.57 792.54 1046"/><line class="cls-4" x1="792.54" y1="951.28" x2="792.54" y2="974.67"/><polyline class="cls-4" points="1101.07 516.5 1101.07 255.23 1021.7 255.23"/><polygon class="cls-5" points="1005.08 255.23 1028.51 245.66 1022.95 255.23 1028.51 264.81 1005.08 255.23"/><polyline class="cls-4" points="997.32 835.11 1101.07 835.11 1101.07 560.5"/><line class="cls-6" x1="260.51" y1="418.33" x2="260.51" y2="446.71"/><polygon class="cls-5" points="260.51 463.33 250.94 439.9 260.51 445.46 270.08 439.9 260.51 463.33"/><polyline class="cls-7" points="550.67 255.23 260.51 255.23 260.51 276.37"/><polygon class="cls-5" points="260.51 293 250.94 269.57 260.51 275.13 270.08 269.57 260.51 293"/><rect class="cls-8" x="56.49" y="297.03" width="397.65" height="120.58" rx="11.5" ry="11.5"/><path class="cls-9" d="M442.64,299.53a9,9,0,0,1,9,9v97.58a9,9,0,0,1-9,9H68a9,9,0,0,1-9-9V308.53a9,9,0,0,1,9-9H442.64m0-5H68a14,14,0,0,0-14,14v97.58a14,14,0,0,0,14,14H442.64a14,14,0,0,0,14-14V308.53a14,14,0,0,0-14-14Z"/><polyline class="cls-7" points="260.51 758.67 260.51 835.11 572.04 835.11"/><polygon class="cls-5" points="588.67 835.11 565.24 844.68 570.8 835.11 565.24 825.54 588.67 835.11"/><line class="cls-6" x1="775.49" y1="120.77" x2="775.49" y2="177.37"/><polygon class="cls-5" points="775.5 194 765.92 170.57 775.5 176.13 785.07 170.57 775.5 194"/><line class="cls-6" x1="507.73" y1="68.77" x2="598.47" y2="68.77"/><polygon class="cls-5" points="615.1 68.77 591.67 78.34 597.23 68.77 591.67 59.2 615.1 68.77"/><path class="cls-10" d="M79.58,113.94a45.17,45.17,0,0,1,0-90.34H458.24a45.17,45.17,0,1,1,0,90.34Z"/><path class="cls-9" d="M458.24,26.1a42.79,42.79,0,0,1,42.67,42.67h0a42.79,42.79,0,0,1-42.67,42.67H79.58A42.79,42.79,0,0,1,36.91,68.77h0A42.79,42.79,0,0,1,79.58,26.1H458.24m0-5H79.58a47.67,47.67,0,0,0,0,95.34H458.24a47.67,47.67,0,1,0,0-95.34Z"/><text class="cls-11" transform="translate(80.24 78.77)">Initiali<tspan class="cls-12" x="87" y="0">z</tspan><tspan class="cls-3" x="101.07" y="0">e </tspan><tspan class="cls-13" x="123.78" y="0">w</tspan><tspan x="146.88" y="0">eig</tspan><tspan class="cls-14" x="188.91" y="0">h</tspan><tspan class="cls-15" x="205.92" y="0">ts and biases </tspan></text><path class="cls-16" d="M613.58,123.27a12.36,12.36,0,0,1-11.25-17.49L640,23.08a12.39,12.39,0,0,1,11.19-7.24l322.25-1.49a12.37,12.37,0,0,1,10.9,18.32l-46.28,84.19a12.39,12.39,0,0,1-10.84,6.41Z"/><path class="cls-9" d="M973.52,16.85a9.86,9.86,0,0,1,8.64,14.62Q959,73.56,935.89,115.66a9.88,9.88,0,0,1-8.65,5.11H613.58a9.87,9.87,0,0,1-9-14q18.85-41.34,37.69-82.69a9.86,9.86,0,0,1,8.93-5.78l322.25-1.49h0m0-5h-.06l-161.14.75-161.12.74A14.92,14.92,0,0,0,637.74,22l-9,19.72-28.71,63a14.87,14.87,0,0,0,13.53,21H927.24a14.87,14.87,0,0,0,13-7.7l31.91-58,14.37-26.15a14.87,14.87,0,0,0-13-22Z"/><text class="cls-11" transform="translate(694.36 80.77)">Scale the d<tspan class="cls-17" x="150.21" y="0">a</tspan><tspan x="165.45" y="0">ta</tspan></text><rect class="cls-18" x="548.17" y="194.94" width="454.66" height="120.58" rx="11.5" ry="11.5"/><path class="cls-9" d="M991.32,197.44a9,9,0,0,1,9,9V304a9,9,0,0,1-9,9H559.67a9,9,0,0,1-9-9V206.45a9,9,0,0,1,9-9H991.32m0-5H559.67a14,14,0,0,0-14,14V304a14,14,0,0,0,14,14H991.32a14,14,0,0,0,14-14V206.45a14,14,0,0,0-14-14Z"/><text class="cls-19" transform="translate(591.43 249.77)"><tspan class="cls-20">P</tspan><tspan x="17.25" y="0">ass input </tspan><tspan class="cls-21" x="143.84" y="0">v</tspan><tspan x="158.8" y="0">alues to p</tspan><tspan class="cls-22" x="287.41" y="0">r</tspan><tspan x="298.2" y="0">edi</tspan><tspan class="cls-23" x="338.89" y="0">c</tspan><tspan x="353.85" y="0">t</tspan><tspan x="0.77" y="34.8">the neu</tspan><tspan class="cls-24" x="100.85" y="34.8">r</tspan><tspan x="111.92" y="34.8">al net</tspan><tspan class="cls-25" x="185.93" y="34.8">w</tspan><tspan x="208.26" y="34.8">ork outputs</tspan></text><text class="cls-19" transform="translate(123.62 369.27)">Unscale the outputs</text><rect x="58.65" y="466.01" width="397.65" height="120.58" rx="11.5" ry="11.5"/><path class="cls-9" d="M444.79,468.51a9,9,0,0,1,9,9v97.57a9,9,0,0,1-9,9H70.15a9,9,0,0,1-9-9V477.52a9,9,0,0,1,9-9H444.79m0-5H70.15a14,14,0,0,0-14,14v97.57a14,14,0,0,0,14,14H444.79a14,14,0,0,0,14-14V477.52a14,14,0,0,0-14-14Z"/><text class="cls-19" transform="translate(195.74 518.75)">Calcul<tspan class="cls-22" x="80.88" y="0">a</tspan><tspan x="95.61" y="0">te </tspan><tspan x="-86.43" y="34.8">the ide</tspan><tspan class="cls-26" x="5.2" y="34.8">n</tspan><tspan x="21.59" y="34.8">tific</tspan><tspan class="cls-26" x="74.4" y="34.8">a</tspan><tspan class="cls-27" x="89.13" y="34.8">tion er</tspan><tspan class="cls-26" x="176.51" y="34.8">r</tspan><tspan x="187.29" y="34.8">or</tspan></text><rect class="cls-28" x="56.49" y="635" width="397.65" height="120.58" rx="11.5" ry="11.5"/><path class="cls-9" d="M442.64,637.5a9,9,0,0,1,9,9v97.57a9,9,0,0,1-9,9H68a9,9,0,0,1-9-9V646.51a9,9,0,0,1,9-9H442.64m0-5H68a14,14,0,0,0-14,14v97.57a14,14,0,0,0,14,14H442.64a14,14,0,0,0,14-14V646.51a14,14,0,0,0-14-14Z"/><text class="cls-29" transform="translate(93.57 689.74)"><tspan class="cls-30">T</tspan><tspan class="cls-31" x="13.73" y="0">r</tspan><tspan x="23.66" y="0">ain the neu</tspan><tspan class="cls-31" x="155.04" y="0">r</tspan><tspan x="164.97" y="0">al net</tspan><tspan class="cls-32" x="231.32" y="0">w</tspan><tspan x="251.34" y="0">ork to </tspan><tspan x="-15.86" y="31.2">upd</tspan><tspan class="cls-33" x="30.13" y="31.2">a</tspan><tspan x="43.34" y="31.2">te the </tspan><tspan class="cls-32" x="119.44" y="31.2">w</tspan><tspan x="139.46" y="31.2">eig</tspan><tspan class="cls-33" x="175.89" y="31.2">h</tspan><tspan x="190.63" y="31.2">ts and biases</tspan></text><path class="cls-34" d="M792.55,951.3a6.7,6.7,0,0,1-3.24-.85l-196.2-110a6.63,6.63,0,0,1,0-11.56l195.6-109.09a6.64,6.64,0,0,1,6.43,0L993.87,829.59a6.63,6.63,0,0,1,0,11.6L795.75,950.47A6.63,6.63,0,0,1,792.55,951.3Z"/><path class="cls-9" d="M792,721.43a4.19,4.19,0,0,1,2,.51L992.66,831.78a4.12,4.12,0,0,1,0,7.22L794.54,948.28a4.09,4.09,0,0,1-4,0l-196.2-110a4.13,4.13,0,0,1,0-7.2L789.94,722a4.13,4.13,0,0,1,2-.52m0-5a9.18,9.18,0,0,0-4.44,1.15L632.72,803.91l-40.81,22.76a9.13,9.13,0,0,0,0,15.93L708.7,908.11l79.39,44.52a9.09,9.09,0,0,0,8.87,0l114-62.89,84.11-46.39a9.13,9.13,0,0,0,0-16L920.22,786,796.36,717.57a9.06,9.06,0,0,0-4.41-1.14Z"/><text class="cls-19" transform="translate(727.01 825.75)"><tspan class="cls-35">V</tspan><tspan class="cls-27" x="17.6" y="0">alid</tspan><tspan class="cls-26" x="65.83" y="0">a</tspan><tspan x="80.56" y="0">tion </tspan><tspan x="-17.3" y="34.8">s</tspan><tspan class="cls-26" x="-3.41" y="34.8">a</tspan><tspan class="cls-27" x="11.33" y="34.8">tis</tspan><tspan class="cls-36" x="44.99" y="34.8">f</tspan><tspan x="56.3" y="34.8">a</tspan><tspan class="cls-23" x="71.62" y="34.8">c</tspan><tspan x="86.58" y="34.8">to</tspan><tspan class="cls-37" x="115.87" y="34.8">r</tspan><tspan x="127.85" y="34.8">y?</tspan></text><path class="cls-10" d="M604.18,1137.6a45.17,45.17,0,1,1,0-90.33H982.84a45.17,45.17,0,1,1,0,90.33Z"/><path class="cls-9" d="M982.84,1049.77a42.79,42.79,0,0,1,42.67,42.67h0a42.79,42.79,0,0,1-42.67,42.66H604.18a42.79,42.79,0,0,1-42.67-42.66h0a42.79,42.79,0,0,1,42.67-42.67H982.84m0-5H604.18a47.67,47.67,0,1,0,0,95.33H982.84a47.67,47.67,0,1,0,0-95.33Z"/><text class="cls-38" transform="translate(683.26 1102.82)">End of t<tspan class="cls-39" x="115.74" y="0">r</tspan><tspan x="127.97" y="0">aining</tspan></text><line class="cls-6" x1="260.51" y1="588.83" x2="260.51" y2="617.21"/><polygon class="cls-5" points="260.51 633.83 250.94 610.4 260.51 615.97 270.08 610.4 260.51 633.83"/></svg>