<svg xmlns="http://www.w3.org/2000/svg" viewBox="0 0 1200 900"><defs><style>.cls-1{fill:#f6eeff;}.cls-2{fill:#f9f9f9;}.cls-3{fill:#e3ffeb;}.cls-4{fill:none;stroke:#000;}.cls-4,.cls-5,.cls-6,.cls-7{stroke-miterlimit:10;}.cls-4,.cls-7{stroke-width:5px;}.cls-5{fill:#2cff77;stroke:#e3ffeb;}.cls-5,.cls-6{stroke-width:4px;}.cls-6{fill:#ddd;stroke:#f9f9f9;}.cls-7{fill:#cd8dff;stroke:#f6eeff;}.cls-8{font-size:48px;font-family:MyriadPro-Regular, Myriad Pro;}</style></defs><title>FF3</title><g id="SW"><g id="Layers"><rect class="cls-1" x="821.52" y="281.79" width="266.99" height="474.32" rx="47.78" ry="47.78"/><rect class="cls-2" x="478.52" y="190.79" width="266.99" height="656.32" rx="47.78" ry="47.78"/><rect class="cls-3" x="130.52" y="281.79" width="266.99" height="474.32" rx="47.78" ry="47.78"/></g><g id="Wiers-2" data-name="Wiers"><polyline class="cls-4" points="613.09 321.31 268.09 421.21 613.09 521.21"/><line class="cls-4" x1="268.09" y1="421.21" x2="613.09" y2="721.12"/><line class="cls-4" x1="268.09" y1="620.91" x2="613.09" y2="321.31"/><line class="cls-4" x1="268.09" y1="620.91" x2="613.09" y2="521.21"/><line class="cls-4" x1="268.09" y1="620.91" x2="613.09" y2="721.12"/><polyline class="cls-4" points="613.09 721.12 958.09 620.91 613.09 721.12 958.09 421.21"/><line class="cls-4" x1="613.09" y1="521.21" x2="958.09" y2="620.91"/><line class="cls-4" x1="613.09" y1="521.21" x2="958.09" y2="421.21"/><line class="cls-4" x1="613.09" y1="321.31" x2="958.09" y2="620.91"/><line class="cls-4" x1="613.09" y1="321.31" x2="958.09" y2="421.21"/></g><g id="Nodes"><circle class="cls-5" cx="266.94" cy="419.43" r="66.7"/><circle class="cls-5" cx="266.94" cy="619.12" r="66.7"/><circle class="cls-6" cx="611.94" cy="319.52" r="66.7"/><circle class="cls-6" cx="611.94" cy="719.33" r="66.7"/><circle class="cls-7" cx="956.94" cy="419.43" r="66.7"/><circle class="cls-7" cx="956.94" cy="619.12" r="66.7"/><circle class="cls-6" cx="611.94" cy="519.43" r="66.7"/></g><g id="Texts"><text class="cls-8" transform="translate(213.97 240.28)">Input</text><text class="cls-8" transform="translate(538.03 147.24)">Hidden</text><text class="cls-8" transform="translate(885.49 249.9)">Output</text></g></g></svg>