<?xml version="1.0" encoding="utf-8"?>
<!-- Generator: Adobe Illustrator 22.1.0, SVG Export Plug-In . SVG Version: 6.00 Build 0)  -->
<svg version="1.1" id="Layer_1" xmlns="http://www.w3.org/2000/svg" xmlns:xlink="http://www.w3.org/1999/xlink" x="0px" y="0px"
	 viewBox="0 0 1200 760.5" style="enable-background:new 0 0 1200 760.5;" xml:space="preserve">
<style type="text/css">
	.st0{fill:#F6EEFF;}
	.st1{fill:#F9F9F9;}
	.st2{fill:#E3FFEB;}
	.st3{fill:none;stroke:#000000;stroke-width:5;stroke-miterlimit:10;}
	.st4{fill:#2CFF77;stroke:#E3FFEB;stroke-width:4;stroke-miterlimit:10;}
	.st5{fill:#DDDDDD;stroke:#F9F9F9;stroke-width:4;stroke-miterlimit:10;}
	.st6{fill:#CD8DFF;stroke:#F6EEFF;stroke-width:5;stroke-miterlimit:10;}
	.st7{font-family:'TimesNewRomanPSMT';}
	.st8{font-size:48px;}
</style>
<title>FF3</title>
<g id="SW">
	<g id="Layers">
		<path class="st0" d="M869.3,181.2h171.4c26.4,0,47.8,21.4,47.8,47.8v378.8c0,26.4-21.4,47.8-47.8,47.8H869.3
			c-26.4,0-47.8-21.4-47.8-47.8V229C821.5,202.6,842.9,181.2,869.3,181.2z"/>
		<path class="st1" d="M526.3,90.2h171.4c26.4,0,47.8,21.4,47.8,47.8v560.8c0,26.4-21.4,47.8-47.8,47.8H526.3
			c-26.4,0-47.8-21.4-47.8-47.8V138C478.5,111.6,499.9,90.2,526.3,90.2z"/>
		<path class="st2" d="M178.3,181.2h171.4c26.4,0,47.8,21.4,47.8,47.8v378.8c0,26.4-21.4,47.8-47.8,47.8H178.3
			c-26.4,0-47.8-21.4-47.8-47.8V229C130.5,202.6,151.9,181.2,178.3,181.2z"/>
	</g>
	<g id="Wiers-2">
		<polyline class="st3" points="613.1,220.7 268.1,320.6 613.1,420.6 		"/>
		<line class="st3" x1="268.1" y1="320.6" x2="613.1" y2="620.5"/>
		<line class="st3" x1="268.1" y1="520.3" x2="613.1" y2="220.7"/>
		<line class="st3" x1="268.1" y1="520.3" x2="613.1" y2="420.6"/>
		<line class="st3" x1="268.1" y1="520.3" x2="613.1" y2="620.5"/>
		<polyline class="st3" points="613.1,620.5 958.1,520.3 613.1,620.5 958.1,320.6 		"/>
		<line class="st3" x1="613.1" y1="420.6" x2="958.1" y2="520.3"/>
		<line class="st3" x1="613.1" y1="420.6" x2="958.1" y2="320.6"/>
		<line class="st3" x1="613.1" y1="220.7" x2="958.1" y2="520.3"/>
		<line class="st3" x1="613.1" y1="220.7" x2="958.1" y2="320.6"/>
	</g>
	<g id="Nodes">
		<circle class="st4" cx="266.9" cy="318.8" r="66.7"/>
		<circle class="st4" cx="266.9" cy="518.5" r="66.7"/>
		<circle class="st5" cx="611.9" cy="218.9" r="66.7"/>
		<circle class="st5" cx="611.9" cy="618.7" r="66.7"/>
		<circle class="st6" cx="956.9" cy="318.8" r="66.7"/>
		<circle class="st6" cx="956.9" cy="518.5" r="66.7"/>
		<circle class="st5" cx="611.9" cy="418.8" r="66.7"/>
	</g>
	<g id="Texts">
		<text transform="matrix(1 0 0 1 213.97 139.6721)" class="st7 st8">Input</text>
		<text transform="matrix(1 0 0 1 538.03 46.6321)" class="st7 st8">Hidden</text>
		<text transform="matrix(1 0 0 1 885.49 149.2921)" class="st7 st8">Output</text>
	</g>
</g>
</svg>
