<svg id="Layer_1" data-name="Layer 1" xmlns="http://www.w3.org/2000/svg" viewBox="0 0 583 146"><defs><style>.cls-1,.cls-3{fill:#1d376c;}.cls-2{fill:#fff;}.cls-3{font-size:99px;font-family:OpenSans-Bold, Open Sans;font-weight:700;}</style></defs><title>Title</title><path class="cls-1" d="M150.83,82.92l38.62-8.3V56.11s.54-13.19-19.36-13.19H153.81S140.41,44,139.35,55.26s0,31.17,0,31.17-.85,14.06,15.53,14.69,34.15,0,34.15,0V89.62H158.6S149.77,90.9,150.83,82.92Z"/><path class="cls-1" d="M95.51,82.92l38.62-8.3V56.11s.54-13.19-19.36-13.19H98.49S85.09,44,84,55.26s0,31.17,0,31.17-.85,14.06,15.54,14.69,34.15,0,34.15,0V89.62H103.28S94.45,90.9,95.51,82.92Z"/><path class="cls-1" d="M79.31,36.68V25.19H41.79s-13.41.71-14.26,13.05V55.05s.32,12.76,15.54,12.87h20s5.1-.32,4.68,6.92-.32,10.53-.32,10.53.32,4-8,3.93-31.92,0-31.92,0v11.81H63.39s15.56.75,15.92-13.83,0-17.66,0-17.66,1-13.19-16.24-13.51-17.24,0-17.24,0-6.17,1.17-6.28-6.06-.1-8.62-.1-8.62S39.34,37,45.62,37,79.31,36.68,79.31,36.68Z"/><path class="cls-2" d="M95.51,71.43l27.24-6.7V57.92S122,54.73,118,54.73H101.05s-5.64-.75-5.54,4.15S95.51,71.43,95.51,71.43Z"/><path class="cls-2" d="M150.84,71.43l27.23-6.7V57.92s-.74-3.19-4.79-3.19H156.37s-5.64-.75-5.53,4.15S150.84,71.43,150.84,71.43Z"/><path class="cls-1" d="M243.68,92.19a29.89,29.89,0,1,0-10.17,6.71l8.18,7.75h15.85Z"/><circle class="cls-2" cx="222.44" cy="71.01" r="19.79"/><path class="cls-1" d="M217.69,55.22c1.25-.18,3.56,1.26,4.61,1.86a19,19,0,0,1,4.26,3.29,15.3,15.3,0,0,1,4.28,10,21,21,0,0,1-2.09,9.72c-1.51,3.15-3.83,5.52-5.83,8.31,0-.06,2-.16,2.26-.22,3.43-.8,6.52-3.47,8.64-6.17a18.55,18.55,0,0,0,3.94-12.17C237.33,60.24,226.64,53.88,217.69,55.22Z"/><text class="cls-3" transform="translate(350 105.64)"><tspan xml:space="preserve">y  Id</tspan></text><path class="cls-1" d="M343.31,40.68V29.19H305.79s-13.41.71-14.26,13.05V59.05s.32,12.76,15.54,12.87h20s5.1-.32,4.68,6.92-.32,10.53-.32,10.53.32,4-8,3.93-31.92,0-31.92,0v11.81h35.86s15.56.75,15.92-13.83,0-17.66,0-17.66,1-13.19-16.24-13.51-17.24,0-17.24,0-6.17,1.17-6.28-6.06-.1-8.62-.1-8.62S303.34,41,309.62,41,343.31,40.68,343.31,40.68Z"/><path class="cls-1" d="M452.88,58.27V49.64H424.7s-10.06.53-10.7,9.8V72.07s.24,9.58,11.66,9.66h15s3.84-.24,3.52,5.2-.24,7.91-.24,7.91.24,3-6,3-24,0-24,0v8.87h26.92s11.7.56,12-10.38,0-13.27,0-13.27.75-9.91-12.2-10.15-12.94,0-12.94,0-4.63.88-4.71-4.55-.08-6.47-.08-6.47-.08-3.36,4.63-3.36S452.88,58.27,452.88,58.27Z"/></svg>